<?xml version="1.0" standalone="no"?>
<!DOCTYPE svg PUBLIC "-//W3C//DTD SVG 20010904//EN"
 "http://www.w3.org/TR/2001/REC-SVG-20010904/DTD/svg10.dtd">
<svg version="1.0" xmlns="http://www.w3.org/2000/svg"
 width="16.000000pt" height="16.000000pt" viewBox="0 0 16.000000 16.000000"
 preserveAspectRatio="xMidYMid meet">
<metadata>
Created by potrace 1.11, written by Peter Selinger 2001-2013
</metadata>
<g transform="translate(0.000000,16.000000) scale(0.002500,-0.002500)"
fill="#000000" stroke="none">
<path d="M3189 6326 c-2 -2 -20 -7 -39 -10 -19 -3 -46 -8 -60 -11 -93 -18
-231 -45 -260 -50 -19 -3 -42 -8 -50 -10 -8 -2 -28 -7 -45 -10 -16 -2 -41 -7
-55 -10 -28 -5 -121 -24 -160 -31 -14 -3 -61 -12 -105 -20 -44 -9 -102 -20
-128 -25 -26 -4 -56 -10 -65 -13 -9 -3 -35 -8 -57 -12 -22 -3 -105 -19 -185
-35 -80 -16 -160 -32 -179 -35 -18 -3 -43 -8 -55 -10 -11 -2 -113 -22 -226
-44 -113 -21 -236 -46 -275 -54 -38 -8 -83 -17 -100 -20 -38 -6 -182 -34 -215
-40 -14 -3 -109 -22 -212 -42 l-187 -37 -41 -58 c-98 -141 -131 -248 -125
-409 10 -237 29 -279 167 -374 79 -53 86 -61 76 -79 -21 -40 -29 -44 -74 -34
-68 16 -133 -22 -173 -102 -22 -41 -26 -64 -40 -197 0 -6 -15 -11 -31 -12 -17
0 -40 -4 -53 -8 -62 -19 -138 -145 -162 -269 -36 -182 -23 -311 47 -465 l29
-65 -16 -65 c-8 -36 -18 -76 -21 -90 -6 -26 -6 -204 0 -230 1 -8 6 -37 11 -65
8 -49 39 -135 53 -145 4 -3 54 -60 110 -126 94 -112 117 -145 92 -129 -5 3
-16 -9 -23 -27 -26 -61 -65 -77 -139 -55 -25 8 -53 11 -65 6 -25 -9 -76 -81
-97 -135 -8 -22 -17 -48 -22 -59 -4 -11 -8 -27 -10 -35 -19 -89 -23 -132 -20
-235 6 -178 41 -281 109 -323 31 -19 105 -71 303 -210 49 -34 208 -145 354
-246 292 -203 321 -223 430 -300 169 -118 421 -294 511 -355 52 -36 150 -104
218 -151 181 -127 614 -428 631 -440 261 -183 349 -242 368 -247 22 -5 101 20
208 68 22 10 65 27 95 39 30 11 63 25 74 30 11 5 49 21 85 36 36 14 83 34 105
43 22 10 60 26 85 35 69 28 81 33 145 60 33 14 296 122 585 241 289 118 534
220 545 225 11 5 99 41 195 81 96 39 193 79 215 89 22 9 63 25 90 35 28 10 55
21 60 25 6 4 59 26 118 50 107 42 127 58 127 100 0 43 -32 77 -145 155 -64 44
-123 85 -130 90 -17 13 -28 79 -20 127 6 36 27 62 116 140 42 37 62 74 68 129
1 4 15 12 32 19 46 20 64 53 49 91 -11 26 -44 45 -266 154 -140 69 -254 127
-254 131 0 3 10 20 22 37 12 18 22 33 23 34 1 1 19 5 41 9 51 8 66 21 62 57
l-3 30 235 68 c248 72 266 81 256 132 -5 26 -40 66 -58 67 -4 0 -39 20 -77 45
-38 25 -72 45 -75 45 -3 0 -22 11 -42 25 -37 25 -38 27 -35 83 1 31 8 80 16
108 18 62 119 231 143 238 9 3 39 10 67 16 56 13 75 25 75 50 0 14 28 29 118
64 64 25 185 71 267 103 83 32 159 63 169 69 34 20 13 58 -59 105 -36 23 -65
44 -65 46 0 2 11 19 24 36 52 70 100 226 85 279 -7 26 -4 29 32 39 52 16 72
39 63 73 -9 36 -24 45 -204 120 -244 101 -230 93 -231 121 -1 14 -2 35 -3 48
-7 94 50 222 121 277 25 19 59 46 75 60 15 14 35 31 43 38 18 16 19 81 1 104
-7 9 -75 47 -152 84 -76 36 -200 96 -274 131 -188 91 -245 116 -245 112 0 -2
-13 6 -29 19 -16 12 -32 22 -37 22 -5 0 -77 33 -161 74 -84 40 -198 95 -253
121 -55 26 -161 77 -235 113 -74 35 -180 86 -235 112 -55 26 -156 75 -225 108
-69 33 -188 90 -265 127 -77 37 -185 89 -240 115 -55 26 -161 77 -235 113
-382 184 -408 195 -421 183z"/>
</g>
</svg>
